<?xml version="1.0" encoding="UTF-8" standalone="no"?>
<svg width="40.64mm" height="128.5mm" viewBox="0 0 40.64 128.5" version="1.1" id="svgSupertonal" xmlns="http://www.w3.org/2000/svg">
  
  <g id="panel">
    <rect id="background" y="0" x="0" height="128.5" width="40.64" fill="#2b302b" />

    <g fill="#111511">
      <circle cx="7.5" cy="5.08" r="1.5" />
      <circle cx="33.14" cy="5.08" r="1.5" />
      <circle cx="7.5" cy="123.42" r="1.5" />
      <circle cx="33.14" cy="123.42" r="1.5" />
    </g>

    <g stroke="#88ff88" stroke-width="0.5" fill="none" stroke-linecap="round" stroke-linejoin="round" transform="translate(8.5, 14.0) scale(0.95)">
      <path d="M 1.5,-2 h-1.5 v1 h1.5 v1 h-1.5" /> 
      <path d="M 2.5,-2 v1.5 c0,0.5 1.5,0.5 1.5,0 v-1.5" /> 
      <path d="M 5.0,0 v-2 h1 c0.5,0 0.5,1 0,1 h-1" /> 
      <path d="M 8.5,0 h-1.5 v-2 h1.5 m-1.5,1 h1" /> 
      <path d="M 9.5,0 v-2 h1 c0.5,0 0.5,1 0,1 h-1 m0.5,0 l0.5,1" /> 
      <path d="M 12.0,-2 h2 m-1,0 v2" /> 
      <path d="M 15.0,-1 c0,-0.5 0.5,-1 1,-1 c0.5,0 1,0.5 1,1 c0,0.5 -0.5,1 -1,1 c-0.5,0 -1,-0.5 -1,-1 z" /> 
      <path d="M 18.0,0 v-2 l1.5,2 v-2" /> 
      <path d="M 20.5,0 v-1.5 c0,-0.5 1.5,-0.5 1.5,0 v1.5 m-1.5,-0.5 h1.5" /> 
      <path d="M 23.5,-2 v2 h1.5" /> 
    </g>

    <g stroke="#90b090" stroke-width="0.8" fill="none" stroke-linecap="round" stroke-linejoin="round">
      
      <g transform="translate(12.0, 27.5) scale(0.6)">
        <path d="M-7.5,2 v-4 l1.5,2 l1.5,-2 v4 M-3.5,2 v-3 l1.5,-1 l1.5,1 v3 m-3,-1.5 h3 M3.5,-2 h-2 c-0.5,0 -1,0.5 -1,1 c0,0.5 0.5,1 1,1 h1 c0.5,0 1,0.5 1,1 c0,0.5 -0.5,1 -1,1 h-2 M4.5,2 v-4 m3,0 l-3,2 l3,2" />
      </g>
      <g transform="translate(28.64, 27.5) scale(0.6)">
        <path d="M-6,-2 h3 m-1.5,0 v4 M-1.5,-2 v2.5 c0,0.8 1.5,0.8 1.5,0 v-2.5 M2.5,2 v-4 l3,4 v-4 M9,-2 h-2.5 v4 h2.5 m-2.5,-2 h1.5" />
      </g>

      <g transform="translate(12.0, 47.5) scale(0.6)">
        <path d="M-7.5,-1 c0,-0.5 0.5,-1 1,-1 h1 c0.5,0 1,0.5 1,1 v2 c0,0.5 -0.5,1 -1,1 h-1 c-0.5,0 -1,-0.5 -1,-1 z M-0.5,2 h-2 c-0.5,0 -1,-0.5 -1,-1 v-2 c0,-0.5 0.5,-1 1,-1 h2 M0.5,-2 h3 m-1.5,0 v4 M7.5,-2 h-2 c-0.5,0 -1,0.5 -1,1 c0,0.5 0.5,1 1,1 h1 c0.5,0 1,0.5 1,1 c0,0.5 -0.5,1 -1,1 h-2" />
      </g>
      <g transform="translate(28.64, 47.5) scale(0.6)">
        <path d="M-5.5,2 v-4 h2 c0.5,0 1,0.5 1,1 c0,0.5 -0.5,1 -1,1 h-2 m2,0 l1,2 M-1.5,-1 c0,-0.5 0.5,-1 1,-1 h1 c0.5,0 1,0.5 1,1 v2 c0,0.5 -0.5,1 -1,1 h-1 c-0.5,0 -1,-0.5 -1,-1 z M2.5,-2 h3 m-1.5,0 v4" />
      </g>

      <g transform="translate(12.0, 67.5) scale(0.6)">
        <path d="M-9.5,-1 c0,-0.5 0.5,-1 1,-1 h1 c0.5,0 1,0.5 1,1 v2 c0,0.5 -0.5,1 -1,1 h-1 c-0.5,0 -1,-0.5 -1,-1 z M-7.5,0.5 l1.5,1.5 M-5.5,-2 v3 c0,0.5 0.5,1 1,1 h1 c0.5,0 1,-0.5 1,-1 v-3 M-1.5,2 v-3 l1.5,-1 l1.5,1 v3 m-3,-1.5 h3 M2.5,2 v-4 l3,4 v-4 M6.5,-2 h3 m-1.5,0 v4" />
      </g>
      <g transform="translate(28.64, 67.5) scale(0.6)">
        <path d="M-5,-2 h-1.5 c-0.5,0 -1,0.5 -1,1 c0,0.5 0.5,1 1,1 h1 c0.5,0 1,0.5 1,1 c0,0.5 -0.5,1 -1,1 h-1.5 M-2,-2 v4 h2 M1.5,-2 v4 M3.5,-2 v4 h1.5 c1,0 1.5,-1 1.5,-2 c0,-1 -0.5,-2 -1.5,-2 z M9.5,-2 h-2 v4 h2 m-2,-2 h1.5" />
      </g>

      <g transform="translate(12.0, 89.5) scale(0.6)">
        <path d="M-3.5,0 c0,-1.5 1,-1.5 2,-1.5 M-3.5,0 c0,1.5 1,1.5 2,1.5 M0.5,-2 l1.5,4 l1.5,-4" />
      </g>
      <g transform="translate(28.64, 89.5) scale(0.6)">
        <path d="M-6,-1 c0,-0.5 0.5,-1 1,-1 c0.5,0 1,0.5 1,1 v2 c0,0.5 -0.5,1 -1,1 c-0.5,0 -1,-0.5 -1,-1 z M-1.5,0 c0,-1.5 1,-1.5 2,-1.5 M-1.5,0 c0,1.5 1,1.5 2,1.5 M4,-2 h3 m-1.5,0 v4" />
      </g>

      <g transform="translate(12.0, 107.5) scale(0.6)">
        <path d="M-4.5,-2 h-2 c-0.5,0 -1,0.5 -1,1 v2 c0,0.5 0.5,1 1,1 h2 v-2 h-1 M-3.5,2 v-3 l1.5,-1 l1.5,1 v3 m-3,-1.5 h3 M0.5,-2 h3 m-1.5,0 v4 M7.5,2 h-3 v-4 h3 m-3,2 h2" />
      </g>
      <g transform="translate(28.64, 107.5) scale(0.6)">
        <path d="M-8,-2 l1.5,4 l1.5,-4 M-4,2 l2,-4 M-1,-1 c0,-0.5 0.5,-1 1,-1 c0.5,0 1,0.5 1,1 v2 c0,0.5 -0.5,1 -1,1 c-0.5,0 -1,-0.5 -1,-1 z M4,-1 c0,-0.5 -0.5,-1 -1,-1 c-0.5,0 -1,0.5 -1,1 v2 c0,0.5 0.5,1 1,1 c0.5,0 1,-0.5 1,-1 M5,-2 h3 m-1.5,0 v4" />
      </g>

    </g>
  </g>

  <g id="components">
    <circle id="MASK_PARAM_PARAM" cx="12.0" cy="36.0" r="3.0" fill="#ff0000" />
    <circle id="TUNE_PARAM_PARAM" cx="28.64" cy="36.0" r="3.0" fill="#ff0000" />
    
    <circle id="OCTAVES_PARAM_PARAM" cx="12.0" cy="56.0" r="3.0" fill="#ff0000" />
    <circle id="ROTATE_PARAM_PARAM" cx="28.64" cy="56.0" r="3.0" fill="#ff0000" />
    
    <circle id="QUANTIZE_PARAM_PARAM" cx="12.0" cy="76.0" r="3.0" fill="#ff0000" />
    <circle id="SLIDE_PARAM_PARAM" cx="28.64" cy="76.0" r="3.0" fill="#ff0000" />
    
    <circle id="CV_IN_INPUT" cx="12.0" cy="98.0" r="3.0" fill="#00ff00" />
    <circle id="OCT_IN_INPUT" cx="28.64" cy="98.0" r="3.0" fill="#00ff00" />
    
    <circle id="GATE_IN_INPUT" cx="12.0" cy="116.0" r="3.0" fill="#00ff00" />
    <circle id="V_OCT_OUT_OUTPUT" cx="28.64" cy="116.0" r="3.0" fill="#0000ff" />
  </g>
</svg>
