<?xml version="1.0" encoding="UTF-8" standalone="no"?>
<svg width="111.76mm" height="128.5mm" viewBox="0 0 111.76 128.5" version="1.1" id="svgSynthoscope" xmlns="http://www.w3.org/2000/svg">
  
  <g id="panel">
    <rect id="background" y="0" x="0" height="128.5" width="111.76" fill="#2b302b" />
    <rect id="displayBezel" y="13.5" x="5.08" height="67.73" width="101.60" fill="#050a05" stroke="#1c331c" stroke-width="0.8" rx="1.5" />

    <g fill="#111511">
      <circle cx="7.5" cy="5.08" r="1.5" />
      <circle cx="104.26" cy="5.08" r="1.5" />
      <circle cx="7.5" cy="123.42" r="1.5" />
      <circle cx="104.26" cy="123.42" r="1.5" />
    </g>

    <g stroke="#88ff88" stroke-width="0.4" fill="none" stroke-linecap="round" stroke-linejoin="round" transform="translate(37.68, 9.5) scale(1.4)">
      <path d="M 1.5,-2 h-1.5 v1 h1.5 v1 h-1.5" />         
      <path d="M 2.5,-2 l0.75,1 v1 m0.75,-2 l-0.75,1" />   
      <path d="M 5.0,0 v-2 l1.5,2 v-2" />                  
      <path d="M 7.5,-2 h2 m-1,0 v2" />                    
      <path d="M 10.5,0 v-2 m2,0 v2 m-2,-1 h2" />          
      <path d="M 13.5,0 v-2 h1.5 v2 z" />                  
      <path d="M 17.5,-2 h-1.5 v1 h1.5 v1 h-1.5" />        
      <path d="M 20.0,-2 h-1.5 v2 h1.5" />                 
      <path d="M 21.0,0 v-2 h1.5 v2 z" />                  
      <path d="M 23.5,0 v-2 h1.5 v1 h-1.5" />              
      <path d="M 27.5,0 h-1.5 v-2 h1.5 m-1.5,1 h1.5" />    
    </g>

    <g stroke="#90b090" stroke-width="0.6" fill="none" stroke-linecap="round" stroke-linejoin="round">
      
      <g transform="translate(10.16, 86.5) scale(0.65)">
        <path d="M-7.5,2 v-4 l1.5,2 l1.5,-2 v4 M-3.5,2 v-3 l1.5,-1 l1.5,1 v3 m-3,-1.5 h3 M3.5,-2 h-2 c-0.5,0 -1,0.5 -1,1 c0,0.5 0.5,1 1,1 h1 c0.5,0 1,0.5 1,1 c0,0.5 -0.5,1 -1,1 h-2 M4.5,2 v-4 m3,0 l-3,2 l3,2" />
      </g>
      <g transform="translate(25.40, 86.5) scale(0.65)">
        <path d="M-6,-2 h3 m-1.5,0 v4 M-1.5,-2 v2.5 c0,0.8 1.5,0.8 1.5,0 v-2.5 M2.5,2 v-4 l3,4 v-4 M9,-2 h-2.5 v4 h2.5 m-2.5,-2 h1.5" />
      </g>
      <g transform="translate(40.64, 86.5) scale(0.65)">
        <path d="M-7.5,-1 c0,-0.5 0.5,-1 1,-1 h1 c0.5,0 1,0.5 1,1 v2 c0,0.5 -0.5,1 -1,1 h-1 c-0.5,0 -1,-0.5 -1,-1 z M-0.5,2 h-2 c-0.5,0 -1,-0.5 -1,-1 v-2 c0,-0.5 0.5,-1 1,-1 h2 M0.5,-2 h3 m-1.5,0 v4 M7.5,-2 h-2 c-0.5,0 -1,0.5 -1,1 c0,0.5 0.5,1 1,1 h1 c0.5,0 1,0.5 1,1 c0,0.5 -0.5,1 -1,1 h-2" />
      </g>
      <g transform="translate(55.88, 86.5) scale(0.65)">
        <path d="M-5.5,2 v-4 h2 c0.5,0 1,0.5 1,1 c0,0.5 -0.5,1 -1,1 h-2 m2,0 l1,2 M-1.5,-1 c0,-0.5 0.5,-1 1,-1 h1 c0.5,0 1,0.5 1,1 v2 c0,0.5 -0.5,1 -1,1 h-1 c-0.5,0 -1,-0.5 -1,-1 z M2.5,-2 h3 m-1.5,0 v4" />
      </g>
      <g transform="translate(71.12, 86.5) scale(0.65)">
        <path d="M-9.5,-1 c0,-0.5 0.5,-1 1,-1 h1 c0.5,0 1,0.5 1,1 v2 c0,0.5 -0.5,1 -1,1 h-1 c-0.5,0 -1,-0.5 -1,-1 z M-7.5,0.5 l1.5,1.5 M-5.5,-2 v3 c0,0.5 0.5,1 1,1 h1 c0.5,0 1,-0.5 1,-1 v-3 M-1.5,2 v-3 l1.5,-1 l1.5,1 v3 m-3,-1.5 h3 M2.5,2 v-4 l3,4 v-4 M6.5,-2 h3 m-1.5,0 v4" />
      </g>
      <g transform="translate(86.36, 86.5) scale(0.65)">
        <path d="M-5,-2 h-1.5 c-0.5,0 -1,0.5 -1,1 c0,0.5 0.5,1 1,1 h1 c0.5,0 1,0.5 1,1 c0,0.5 -0.5,1 -1,1 h-1.5 M-2,-2 v4 h2 M1.5,-2 v4 M3.5,-2 v4 h1.5 c1,0 1.5,-1 1.5,-2 c0,-1 -0.5,-2 -1.5,-2 z M9.5,-2 h-2 v4 h2 m-2,-2 h1.5" />
      </g>
      <g transform="translate(101.60, 86.5) scale(0.65)">
        <path d="M-9.5,2 v-4 h2 c0.5,0 1,0.5 1,1 c0,0.5 -0.5,1 -1,1 h-2 m2,0 c0.5,0 1,0.5 1,1 c0,0.5 -0.5,1 -1,1 h-2 M-2.5,2 h-3 v-4 h3 m-3,2 h2 M-1.5,2 v-3 l1.5,-1 l1.5,1 v3 m-3,-1.5 h3 M2.5,-2 h3 m-1.5,0 v4 M9.5,-2 h-2 c-0.5,0 -1,0.5 -1,1 c0,0.5 0.5,1 1,1 h1 c0.5,0 1,0.5 1,1 c0,0.5 -0.5,1 -1,1 h-2" />
      </g>
      
      <g transform="translate(10.16, 106.5) scale(0.65)">
        <path d="M-2.5,2 h-2 c-0.5,0 -1,-0.5 -1,-1 v-2 c0,-0.5 0.5,-1 1,-1 h2 M-1.5,-2 v4 h3 M2.5,2 v-4 m3,0 l-3,2 l3,2" />
      </g>
      <g transform="translate(25.40, 106.5) scale(0.65)">
        <path d="M-5.5,2 v-4 h2 c0.5,0 1,0.5 1,1 c0,0.5 -0.5,1 -1,1 h-2 m2,0 l1,2 M1.5,-2 h-2 c-0.5,0 -1,0.5 -1,1 c0,0.5 0.5,1 1,1 h1 c0.5,0 1,0.5 1,1 c0,0.5 -0.5,1 -1,1 h-2 M2.5,-2 h3 m-1.5,0 v4" />
      </g>
      <g transform="translate(40.64, 106.5) scale(0.65)">
        <path d="M-2.5,2 h-3 v-4 h3 m-3,2 h2 M-1.5,-1 c0,-0.5 0.5,-1 1,-1 h1 c0.5,0 1,0.5 1,1 v2 c0,0.5 -0.5,1 -1,1 h-1 c-0.5,0 -1,-0.5 -1,-1 z M5.5,2 h-2 c-0.5,0 -1,-0.5 -1,-1 v-2 c0,-0.5 0.5,-1 1,-1 h2" />
      </g>
      <g transform="translate(55.88, 106.5) scale(0.65)">
        <path d="M-2,-2 l4,4 M-2,2 l4,-4" />
      </g>
      <g transform="translate(71.12, 106.5) scale(0.65)">
        <path d="M-2,-2 l2,2 v2 M2,-2 l-2,2" />
      </g>
      <g transform="translate(86.36, 106.5) scale(0.65)">
        <path d="M-4.5,-2 h-2 c-0.5,0 -1,0.5 -1,1 v2 c0,0.5 0.5,1 1,1 h2 v-2 h-1 M-3.5,2 v-3 l1.5,-1 l1.5,1 v3 m-3,-1.5 h3 M0.5,-2 h3 m-1.5,0 v4 M7.5,2 h-3 v-4 h3 m-3,2 h2" />
      </g>
      <g transform="translate(101.60, 106.5) scale(0.65)">
        <path d="M-8,-2 l1.5,4 l1.5,-4 M-4,2 l2,-4 M-1,-1 c0,-0.5 0.5,-1 1,-1 c0.5,0 1,0.5 1,1 v2 c0,0.5 -0.5,1 -1,1 c-0.5,0 -1,-0.5 -1,-1 z M4,-1 c0,-0.5 -0.5,-1 -1,-1 c-0.5,0 -1,0.5 -1,1 v2 c0,0.5 0.5,1 1,1 c0.5,0 1,-0.5 1,-1 M5,-2 h3 m-1.5,0 v4" />
      </g>
    </g>
  </g>

  <g id="components">
    <circle id="MASK_PARAM_PARAM" cx="10.16" cy="94.0" r="3.0" fill="#ff0000" />
    <circle id="TUNE_PARAM_PARAM" cx="25.40" cy="94.0" r="3.0" fill="#ff0000" />
    <circle id="OCTAVES_PARAM_PARAM" cx="40.64" cy="94.0" r="3.0" fill="#ff0000" />
    <circle id="ROTATE_PARAM_PARAM" cx="55.88" cy="94.0" r="3.0" fill="#ff0000" />
    <circle id="QUANTIZE_PARAM_PARAM" cx="71.12" cy="94.0" r="3.0" fill="#ff0000" />
    <circle id="SLIDE_PARAM_PARAM" cx="86.36" cy="94.0" r="3.0" fill="#ff0000" />
    <circle id="BEATS_PARAM_PARAM" cx="101.60" cy="94.0" r="3.0" fill="#ff0000" />
    
    <circle id="CLOCK_IN_INPUT" cx="10.16" cy="114.0" r="3.0" fill="#00ff00" />
    <circle id="RESET_IN_INPUT" cx="25.40" cy="114.0" r="3.0" fill="#00ff00" />
    <circle id="EOC_OUT_OUTPUT" cx="40.64" cy="114.0" r="3.0" fill="#0000ff" />
    <circle id="X_CV_OUT_OUTPUT" cx="55.88" cy="114.0" r="3.0" fill="#0000ff" />
    <circle id="Y_CV_OUT_OUTPUT" cx="71.12" cy="114.0" r="3.0" fill="#0000ff" />
    <circle id="GATE_OUT_OUTPUT" cx="86.36" cy="114.0" r="3.0" fill="#0000ff" />
    <circle id="PITCH_OUT_OUTPUT" cx="101.60" cy="114.0" r="3.0" fill="#0000ff" />
  </g>
</svg>
